:SAMPLES-PER-SECOND 30
:FRAME-RANGE 1-3358
:FULLY-SPECIFIED
:DEGREES
945
root  57.6013 39.2682 -23.9905 -170.641 -73.8999 177.19
RightUpLeg  -26.4387 2.79612 -2.78313
RightLeg  21.9581 0.116369 -0.158237
RightFoot  -7.64346 -0.378035 10.0713
RightToes  -1.11029e-010 1.2921e-014 -6.02303e-014
Spine  2.11553 1.29808 5.01627
Spine1  7.89999 2.91621 -5.20865
HEad  7.30068 -26.645 10.3312
LeftShoulder1  2.27795 -5.3975 -19.9741
LeftArm  26.305 -2.38133 -55.9494
LeftForeArm  30.9187 -10.6806 -12.8882
LeftHand  -0.00522892 5.81252 5.53556
RightShoulder  3.49035 9.08675 22.0209
RightArm  80.473 28.9784 95.0509
RightForeArm  14.5739 26.8661 5.00054
RightHand  -0.0893262 -4.46756 -9.09261
LeftUpLeg  -12.1899 -4.93847 0.304319
LeftLeg  19.9086 -4.81952 -0.726182
LeftFoot  -14.4662 0.0615603 -0.924072
LeftToes  -1.90334e-010 -8.83595e-011 4.99953e-011
946
root  57.7379 39.3254 -24.0794 -170.806 -71.4672 177.001
RightUpLeg  -25.6982 1.78528 -4.16033
RightLeg  24.8049 -3.60572 -2.03267
RightFoot  -9.19169 -0.214036 8.06018
RightToes  -1.11029e-010 1.2921e-014 -6.02303e-014
Spine  1.40579 1.28534 5.02437
Spine1  7.79019 2.99359 -5.99534
HEad  8.10826 -28.1336 10.945
LeftShoulder1  2.27218 -5.32228 -20.1472
LeftArm  25.4707 -2.08574 -55.8613
LeftForeArm  33.03 -9.71241 -13.3561
LeftHand  -0.0106942 5.74492 4.92675
RightShoulder  3.39984 8.85524 21.7979
RightArm  72.34 26.1332 94.5181
RightForeArm  19.4251 34.3853 6.55404
RightHand  -0.112786 -3.81185 -7.14221
LeftUpLeg  -11.1449 -1.88229 0.017758
LeftLeg  18.7375 -5.58479 -0.567236
LeftFoot  -14.047 0.0550724 -1.23535
LeftToes  -1.90334e-010 -8.83595e-011 4.99953e-011
947
root  57.8358 39.354 -24.215 -170.996 -69.6534 176.697
RightUpLeg  -24.4968 1.23025 -6.6085
RightLeg  26.7656 -3.82182 -2.31172
RightFoot  -10.1514 -0.14481 7.28578
RightToes  -1.11029e-010 1.2921e-014 -6.02303e-014
Spine  0.787524 0.983105 4.70126
Spine1  7.56728 2.56983 -6.13751
HEad  8.95342 -29.1764 10.9549
LeftShoulder1  2.29645 -5.25736 -20.6647
LeftArm  24.5926 -1.25293 -55.5664
LeftForeArm  33.7463 -9.47889 -13.3984
LeftHand  -0.0169123 5.58785 4.82385
RightShoulder  3.25531 8.44871 21.5152
RightArm  67.4607 23.8557 93.4401
RightForeArm  22.2732 41.0483 8.30066
RightHand  -0.104143 -3.61825 -5.7935
LeftUpLeg  -10.0929 0.434271 -0.018926
LeftLeg  17.8607 -6.14145 -0.654865
LeftFoot  -13.7323 0.0558476 -1.27051
LeftToes  -1.90334e-010 -8.83595e-011 4.99953e-011
948
root  57.9018 39.3483 -24.3861 -171.036 -67.3893 176.259
RightUpLeg  -23.1828 0.580028 -9.54166
RightLeg  27.5415 -2.82743 -1.81941
RightFoot  -10.706 -0.110902 6.86665
RightToes  -1.11029e-010 1.2921e-014 -6.02303e-014
Spine  0.210486 0.884411 4.12408
Spine1  7.28973 2.23712 -5.80545
HEad  9.76598 -30.0439 10.4379
LeftShoulder1  2.32665 -5.14926 -21.4125
LeftArm  23.7149 -0.185622 -55.3352
LeftForeArm  32.9427 -9.59382 -13.2727
LeftHand  -0.0151114 5.60862 5.17009
RightShoulder  3.05938 7.96415 20.9254
RightArm  63.0139 21.5198 92.4387
RightForeArm  24.432 46.2481 9.95857
RightHand  -0.0721365 -3.78986 -3.93907
LeftUpLeg  -9.03018 2.01393 -0.0242601
LeftLeg  17.1868 -5.59265 -0.607824
LeftFoot  -13.741 0.0487793 -1.60538
LeftToes  -1.90334e-010 -8.83595e-011 4.99953e-011
949
root  57.9488 39.3599 -24.5954 -171.416 -64.6646 176.259
RightUpLeg  -21.6008 -0.7813 -12.244
RightLeg  26.3765 -3.10437 -1.89019
RightFoot  -10.2874 -0.129605 6.48034
RightToes  -1.11029e-010 1.2921e-014 -6.02303e-014
Spine  -0.381291 0.859159 4.12503
Spine1  7.16013 2.08181 -5.76698
HEad  10.3788 -30.6808 10.1274
LeftShoulder1  2.26529 -4.85249 -21.6771
LeftArm  22.6604 0.924617 -55.43
LeftForeArm  32.4614 -9.98438 -12.9612
LeftHand  -0.0318834 5.1886 5.2066
RightShoulder  2.91065 7.51847 20.6469
RightArm  59.7184 20.3012 90.5813
RightForeArm  25.7721 50.2499 11.5143
RightHand  -0.0566395 -4.03817 -3.17719
LeftUpLeg  -7.82926 2.94947 0.108101
LeftLeg  16.3076 -3.974 -0.237016
LeftFoot  -13.7461 0.0394534 -2.04709
LeftToes  -1.90334e-010 -8.83595e-011 4.99953e-011
950
root  57.9717 39.3981 -24.8597 -172.072 -61.2195 176.634
RightUpLeg  -19.8786 -2.59588 -14.4858
RightLeg  23.1031 -4.71276 -2.41077
RightFoot  -8.6517 -0.209091 6.39264
RightToes  -1.11029e-010 1.2921e-014 -6.02303e-014
Spine  -0.917688 0.966786 4.55267
Spine1  6.96793 2.12499 -5.81062
HEad  11.0698 -30.8874 9.78993
LeftShoulder1  2.17464 -4.47731 -21.8611
LeftArm  23.2659 2.17396 -55.4065
LeftForeArm  30.8962 -11.0042 -12.4202
LeftHand  -0.0301067 5.23332 5.27671
RightShoulder  2.8247 7.15463 20.7657
RightArm  57.1812 19.4513 88.2597
RightForeArm  25.6124 52.753 12.7284
RightHand  -0.047757 -4.16395 -2.55666
LeftUpLeg  -6.31622 3.68877 0.38721
LeftLeg  15.0267 -1.45056 0.321238
LeftFoot  -13.6097 0.0279719 -2.70781
LeftToes  -1.90334e-010 -8.83595e-011 4.99953e-011
951
root  57.9705 39.4456 -25.1957 -172.826 -57.3777 177.135
RightUpLeg  -18.1044 -5.14899 -16.156
RightLeg  18.3493 -6.51975 -2.6095
RightFoot  -5.71625 -0.357476 6.47633
RightToes  -1.11029e-010 1.2921e-014 -6.02303e-014
Spine  -1.74919 1.08852 5.09541
Spine1  7.28804 2.14478 -5.55604
HEad  11.6431 -30.462 9.37274
LeftShoulder1  2.11089 -4.24482 -21.8773
LeftArm  23.6591 3.26424 -55.4487
LeftForeArm  29.8676 -11.6918 -12.0284
LeftHand  -0.0264386 5.22799 5.33116
RightShoulder  2.79283 6.96767 20.9583
RightArm  54.9818 19.1078 85.7471
RightForeArm  24.8834 53.8536 13.3713
RightHand  -0.0418197 -4.35881 -2.22938
LeftUpLeg  -4.50547 4.07025 0.63574
LeftLeg  13.4881 1.86837 1.19579
LeftFoot  -13.2665 0.0213081 -3.46337
LeftToes  -1.90334e-010 -8.83595e-011 4.99953e-011
952
root  57.9786 39.4466 -25.6257 -173.266 -53.1142 177.323
RightUpLeg  -16.9336 -9.39345 -17.0537
RightLeg  13.6137 -7.35205 -2.29336
RightFoot  -2.90019 -0.46669 6.04954
RightToes  -1.11029e-010 1.2921e-014 -6.02303e-014
Spine  -2.6334 1.19125 5.45092
Spine1  7.89641 2.17518 -5.30171
HEad  12.059 -29.3986 9.08309
LeftShoulder1  2.02738 -4.01346 -21.6027
LeftArm  24.4091 4.08889 -55.5517
LeftForeArm  29.2116 -12.2153 -11.7489
LeftHand  -0.0243966 5.29235 5.31415
RightShoulder  2.77047 6.81553 21.1581
RightArm  53.2516 19.0419 83.772
RightForeArm  23.5178 53.2999 13.1934
RightHand  -0.0396646 -4.41842 -2.05504
LeftUpLeg  -2.71274 4.20323 0.647383
LeftLeg  12.2995 5.77928 2.23612
LeftFoot  -13.1076 0.00464016 -4.79076
LeftToes  -1.90334e-010 -8.83595e-011 4.99953e-011
953
root  58.0301 39.4062 -26.1713 -173.619 -48.5005 177.506
RightUpLeg  -16.2641 -12.8956 -17.2417
RightLeg  9.18826 -9.1666 -1.86072
RightFoot  -1.24347 -0.599365 6.67976
RightToes  -1.11029e-010 1.2921e-014 -6.02303e-014
Spine  -3.32937 1.30329 5.6505
Spine1  8.29812 2.2187 -4.9875
HEad  12.6091 -28.0131 8.89512
LeftShoulder1  1.95234 -3.81058 -21.3197
LeftArm  25.2825 4.68566 -55.3244
LeftForeArm  28.8305 -12.3932 -11.7077
LeftHand  -0.026209 5.33135 5.09519
RightShoulder  2.76634 6.60289 21.74
RightArm  51.996 19.0798 81.8044
RightForeArm  21.235 51.9746 12.705
RightHand  -0.0281613 -5.30724 -3.72428
LeftUpLeg  -1.06612 4.68687 0.942158
LeftLeg  11.6466 9.64707 2.87727
LeftFoot  -13.1661 -0.0195347 -6.17224
LeftToes  -1.90334e-010 -8.83595e-011 4.99953e-011
954
root  58.1443 39.36 -26.8325 -174.108 -43.3471 178.26
RightUpLeg  -16.1626 -12.658 -16.6343
RightLeg  5.39728 -14.885 -1.25422
RightFoot  0.129451 -0.642909 6.40265
RightToes  -1.11029e-010 1.2921e-014 -6.02303e-014
Spine  -4.01053 1.54801 6.16798
Spine1  8.68947 2.39299 -4.67298
HEad  12.9115 -26.2619 9.05898
LeftShoulder1  1.86913 -3.55827 -21.101
LeftArm  25.6712 5.18655 -54.8599
LeftForeArm  28.8579 -12.2577 -11.8353
LeftHand  -0.0247062 5.36881 5.13392
RightShoulder  2.77084 6.42378 22.336
RightArm  50.7557 19.0106 80.0865
RightForeArm  19.89 50.0674 11.901
RightHand  -0.0377141 -4.97125 -3.88212
LeftUpLeg  0.39859 5.36783 1.71219
LeftLeg  11.2891 13.7645 3.6217
LeftFoot  -13.2622 -0.0574234 -8.14756
LeftToes  -1.90334e-010 -8.83595e-011 4.99953e-011
955
root  58.3408 39.2787 -27.6037 -174.307 -38.4486 178.75
RightUpLeg  -16.2223 -11.5127 -15.4984
RightLeg  2.73695 -21.3912 -0.281593
RightFoot  0.645845 -0.651745 6.24289
RightToes  -1.11029e-010 1.2921e-014 -6.02303e-014
Spine  -4.59502 1.5335 6.00341
Spine1  9.26212 2.20399 -3.89124
HEad  12.6027 -24.0908 9.59441
LeftShoulder1  1.83038 -3.50663 -20.7135
LeftArm  23.2319 5.66315 -54.4637
LeftForeArm  30.4888 -11.149 -12.3396
LeftHand  -0.0174568 5.56178 4.98525
RightShoulder  2.75938 6.26322 22.7153
RightArm  49.2252 18.8509 78.9125
RightForeArm  18.3143 47.7715 11.0199
RightHand  -0.0209556 -5.4765 -5.24759
LeftUpLeg  1.75106 5.88474 2.43584
LeftLeg  11.3647 17.7182 4.50139
LeftFoot  -13.2424 -0.0946707 -10.4529
LeftToes  -1.90334e-010 -8.83595e-011 4.99953e-011
956
root  58.636 39.1595 -28.5155 -174.158 -34.1288 179.446
RightUpLeg  -16.5953 -10.2318 -13.4549
RightLeg  1.49857 -27.006 0.777751
RightFoot  0.106682 -0.551986 5.50904
RightToes  -1.11029e-010 1.2921e-014 -6.02303e-014
Spine  -4.83 1.21244 5.40806
Spine1  8.89963 1.57119 -2.66242
HEad  12.2502 -21.5839 9.79419
LeftShoulder1  1.79282 -3.43239 -20.4334
LeftArm  21.5663 6.69951 -53.6997
LeftForeArm  31.175 -10.369 -12.667
LeftHand  -0.00427772 5.91351 4.9357
RightShoulder  2.68784 5.89214 23.1206
RightArm  47.6823 18.2082 78.1225
RightForeArm  17.3713 45.2859 10.1039
RightHand  -0.00440633 -5.74984 -6.57571
LeftUpLeg  2.46855 6.63415 3.72678
LeftLeg  12.1927 20.5438 5.394
LeftFoot  -13.2107 -0.139543 -13.336
LeftToes  -1.90334e-010 -8.83595e-011 4.99953e-011
